<svg xmlns="http://www.w3.org/2000/svg" width="51.82" height="47.502" viewBox="0 0 51.82 47.502">
  <path id="chat" d="M43.183,19.033C43.183,8.557,32.925,1,21.592,1,10.189,1,0,8.613,0,19.033A15.905,15.905,0,0,0,3.681,29.171c.1,3.3-1.837,8.028-3.586,11.47,4.681-.844,11.34-2.716,14.356-4.567,16.619,4.053,28.732-6.136,28.732-17.04Zm-31.308,2.98a2.7,2.7,0,1,1,2.7-2.7A2.7,2.7,0,0,1,11.875,22.013Zm9.716,0a2.7,2.7,0,1,1,2.7-2.7A2.7,2.7,0,0,1,21.592,22.013Zm9.716,0a2.7,2.7,0,1,1,2.7-2.7A2.7,2.7,0,0,1,31.308,22.013Zm18.1,18.977c-.063,2.161,1.2,5.258,2.349,7.512-3.064-.557-7.423-1.779-9.4-2.99-7.266,1.766-13.2-.626-16.351-4.534C35.849,39.552,43.8,33.3,46.5,25.124a11.087,11.087,0,0,1,5.322,9.228,10.409,10.409,0,0,1-2.412,6.637Z" transform="translate(0 -1)" fill="#36453b"/>
</svg>
