<svg xmlns="http://www.w3.org/2000/svg" width="47.058" height="47.058" viewBox="0 0 47.058 47.058">
  <path id="person1" d="M38.235,29.411a8.823,8.823,0,1,0,8.823,8.823A8.827,8.827,0,0,0,38.235,29.411Zm4.9,9.8H39.215v3.922H37.254V39.215H33.333V37.254h3.922V33.333h1.961v3.922h3.922ZM29.058,47.058H.01L0,44.625c0-4.941.39-7.794,6.231-9.143,6.6-1.524,13.114-2.888,9.98-8.663C6.931,9.7,13.564,0,23.529,0c13.237,0,14.717,14.892,7.137,26.821C28.133,30.8,25.49,33.939,25.49,38.235A12.694,12.694,0,0,0,29.058,47.058Z" fill="#36453b"/>
</svg>
